<svg xmlns="http://www.w3.org/2000/svg" version="1.1" xmlns:xlink="http://www.w3.org/1999/xlink" xmlns:svgjs="http://svgjs.com/svgjs" width="512" height="512" x="0" y="0" viewBox="0 0 48 48" style="enable-background:new 0 0 512 512" xml:space="preserve" class=""><g><g transform="translate(-159 -53)"><g id="ngicon" transform="translate(28.924 4.644)"><g transform="translate(-1138.49 -45.429)"><g><path d="m1281.59 112.495s-2.05 2.055-4.35 4.356c-2.13 2.123-3.32 5.003-3.32 8.006 0 3.002 1.19 5.882 3.32 8.005.08.084.16.168.25.252 2.12 2.123 5 3.316 8 3.316 3.01 0 5.89-1.193 8.01-3.316 2.3-2.3 4.36-4.356 4.36-4.356.97-.975.97-2.56 0-3.535-.98-.976-2.56-.976-3.54 0 0 0-2.06 2.055-4.36 4.356-1.18 1.185-2.79 1.851-4.47 1.851-1.67 0-3.28-.666-4.47-1.851l-.25-.252c-1.18-1.186-1.85-2.794-1.85-4.47 0-1.677.67-3.285 1.85-4.471 2.3-2.3 4.36-4.356 4.36-4.356.97-.975.97-2.559 0-3.535-.98-.976-2.56-.976-3.54 0z" fill="#000034" data-original="#000034"></path></g><g><path d="m1296.47 110.347-11.34 11.34c-.98.976-.98 2.56 0 3.536.97.975 2.56.975 3.53 0l11.34-11.341c.98-.976.98-2.56 0-3.535-.97-.976-2.56-.976-3.53 0z" fill="#ffa523" data-original="#ffa523" class=""></path></g><g><path d="m1303.51 123.1s2.07-2.069 4.38-4.38c2.13-2.123 3.32-5.003 3.32-8.006 0-3.002-1.19-5.882-3.32-8.005-.08-.084-.16-.168-.25-.252-2.12-2.124-5-3.316-8-3.316-3.01 0-5.89 1.192-8.01 3.316-2.3 2.299-4.35 4.354-4.35 4.354-.98.976-.98 2.56 0 3.536.97.975 2.56.975 3.53 0 0 0 2.06-2.055 4.36-4.355 1.18-1.185 2.79-1.851 4.47-1.851 1.67 0 3.28.666 4.47 1.851l.25.252c1.18 1.186 1.85 2.794 1.85 4.47 0 1.677-.67 3.285-1.85 4.471-2.31 2.311-4.38 4.379-4.38 4.379-.98.976-.98 2.56 0 3.536.97.975 2.56.975 3.53 0z" fill="#000034" data-original="#000034"></path></g></g></g></g></g></svg>